Coordinates
version=1
nRows=18
nColumns=63
inDegrees=yes

Units are S.I. units (second, meters, Newtons, ...)
If the header above contains a line with 'inDegrees', this indicates whether rotational values are in degrees (yes) or radians (no).

endheader
time	pelvis_tilt	pelvis_list	pelvis_rotation	pelvis_tx	pelvis_ty	pelvis_tz	hip_flexion_r	hip_adduction_r	hip_rotation_r	knee_angle_r	knee_angle_r_beta	ankle_angle_r	subtalar_angle_r	mtp_angle_r	hip_flexion_l	hip_adduction_l	hip_rotation_l	knee_angle_l	knee_angle_l_beta	ankle_angle_l	subtalar_angle_l	mtp_angle_l	L5_S1_Flex_Ext	L5_S1_Lat_Bending	L5_S1_axial_rotation	L4_L5_Flex_Ext	L4_L5_Lat_Bending	L4_L5_axial_rotation	L3_L4_Flex_Ext	L3_L4_Lat_Bending	L3_L4_axial_rotation	L2_L3_Flex_Ext	L2_L3_Lat_Bending	L2_L3_axial_rotation	L1_L2_Flex_Ext	L1_L2_Lat_Bending	L1_L2_axial_rotation	L1_T12_Flex_Ext	L1_T12_Lat_Bending	L1_T12_axial_rotation	Abs_r3	Abs_r2	Abs_r1	Abs_t1	Abs_t2	neck_flexion	neck_bending	neck_rotation	arm_flex_r	arm_add_r	arm_rot_r	elbow_flex_r	pro_sup_r	wrist_flex_r	wrist_dev_r	arm_flex_l	arm_add_l	arm_rot_l	elbow_flex_l	pro_sup_l	wrist_flex_l	wrist_dev_l
0.653846	7.182515	-0.771219	91.183594	0.420122	0.689154	0.794244	6.738101	3.079682	6.981722	0.649580	0.011337	18.727787	-14.862306	0.000000	7.334338	-1.558078	8.663437	2.228010	0.038886	22.242361	-6.184135	0.000000	0.327124	0.328970	-0.306245	0.607502	0.437530	-0.325385	0.537432	0.799857	-0.325385	0.373870	0.799857	-0.267965	0.303767	0.670835	-0.248824	0.186919	0.509574	-0.229684	2.336615	3.721371	-1.703244	0.000000	0.000000	27.112990	1.180979	-5.860815	13.644500	-16.459202	70.946759	30.345642	53.373077	-8.575616	-3.925189	7.854356	-15.946631	43.242777	36.283472	88.394350	-21.217053	-1.441499
0.673077	7.236193	-0.754136	91.090479	0.420826	0.689311	0.794683	6.865806	3.219467	6.847367	0.727837	0.012703	18.839357	-14.821752	0.000000	7.341871	-1.682823	8.237502	2.206993	0.038519	22.125993	-5.583887	0.000000	0.314971	0.323702	-0.322054	0.584933	0.430524	-0.342183	0.517466	0.787050	-0.342183	0.359980	0.787050	-0.281798	0.292482	0.660094	-0.261669	0.179974	0.501415	-0.241541	2.249807	3.661786	-1.791170	0.000000	0.000000	27.011304	1.584408	-5.420504	13.468605	-17.171343	70.604813	29.963042	57.085602	-8.371547	-3.589626	7.197493	-16.812620	42.180497	35.154713	89.726007	-21.045383	-0.934927
0.692308	7.301278	-0.734851	90.979785	0.421498	0.689335	0.795134	7.040347	3.370945	6.565286	0.883220	0.015415	19.092872	-14.620848	0.000000	7.352548	-1.818321	7.768404	2.193028	0.038276	22.071031	-4.935834	0.000000	0.302104	0.320116	-0.337400	0.561038	0.425754	-0.358487	0.496327	0.778329	-0.358487	0.345275	0.778329	-0.295225	0.280534	0.652780	-0.274137	0.172622	0.495859	-0.253050	2.157900	3.621213	-1.876515	0.000000	0.000000	26.870768	1.904917	-5.047479	13.316741	-17.824941	70.907409	29.483804	60.431000	-8.090360	-3.164594	6.423294	-17.549380	40.565541	34.053885	90.586093	-20.128341	0.015569
0.711538	7.373057	-0.720846	90.862213	0.422083	0.689213	0.795615	7.283812	3.523424	6.101723	1.151698	0.020101	19.502482	-14.224115	0.000000	7.385639	-1.957242	7.163651	2.201260	0.038419	22.150711	-4.101890	0.000000	0.289893	0.318855	-0.350673	0.538361	0.424078	-0.372590	0.476266	0.775265	-0.372590	0.331319	0.775265	-0.306839	0.269195	0.650210	-0.284922	0.165645	0.493907	-0.263005	2.070679	3.606956	-1.950338	0.000000	0.000000	26.677403	2.117486	-4.740059	13.188120	-18.407437	72.042676	28.866455	62.767387	-7.672528	-2.744461	5.623614	-18.172613	38.845182	32.913258	90.460402	-18.607910	1.073103
0.730769	7.464218	-0.685092	90.747285	0.422527	0.688991	0.796057	7.555204	3.687835	5.482445	1.528006	0.026669	20.044000	-13.683365	0.000000	7.402523	-2.108482	6.524968	2.216643	0.038688	22.401322	-3.183098	0.000000	0.275008	0.321879	-0.359102	0.510717	0.428100	-0.381546	0.451810	0.782618	-0.381546	0.314306	0.782618	-0.314214	0.255372	0.656377	-0.291770	0.157139	0.498591	-0.269326	1.964353	3.641165	-1.997216	0.000000	0.000000	26.402163	2.205833	-4.523193	13.005599	-18.956235	73.628948	28.155848	64.417848	-7.195831	-2.325588	4.800378	-18.665798	36.952597	31.774127	89.471946	-16.549880	2.235960
0.750000	7.553238	-0.638984	90.648369	0.422810	0.688672	0.796461	7.876640	3.838108	4.734020	2.049440	0.035769	20.699942	-13.048647	0.000000	7.423112	-2.244903	5.893484	2.259496	0.039436	22.808112	-2.236050	0.000000	0.258891	0.326438	-0.366622	0.480787	0.434162	-0.389536	0.425332	0.793701	-0.389536	0.295887	0.793701	-0.320794	0.240406	0.665672	-0.297880	0.147930	0.505652	-0.274967	1.849234	3.692728	-2.039042	0.000000	0.000000	26.049360	2.173586	-4.413951	12.749692	-19.474173	75.389035	27.410512	65.528900	-6.698842	-1.860999	3.968673	-19.046606	34.944857	30.600611	87.941236	-14.183178	3.178242
0.769231	7.603589	-0.577556	90.580158	0.422973	0.688255	0.796844	8.254611	3.933827	3.865897	2.753659	0.048060	21.471589	-12.342440	0.000000	7.447668	-2.331065	5.219079	2.345345	0.040934	23.373554	-1.196429	0.000000	0.239898	0.326724	-0.377887	0.445515	0.434542	-0.401505	0.394128	0.794396	-0.401505	0.274179	0.794396	-0.330651	0.222769	0.666255	-0.307033	0.137078	0.506095	-0.283415	1.713567	3.695963	-2.101695	0.000000	0.000000	25.627545	2.062222	-4.411140	12.448095	-19.938697	77.240735	26.683939	66.218369	-6.254801	-1.363365	2.853043	-19.475641	28.439883	29.974654	90.594023	-12.186725	4.148718
0.788462	7.636656	-0.504224	90.530587	0.422927	0.687828	0.797110	8.666438	3.999398	2.948982	3.601064	0.062850	22.281914	-11.645794	0.000000	7.464362	-2.380360	4.631893	2.465763	0.043036	24.029130	-0.254411	0.000000	0.219932	0.327352	-0.389552	0.408435	0.435378	-0.413899	0.361326	0.795923	-0.413899	0.251360	0.795923	-0.340858	0.204229	0.667535	-0.316511	0.125669	0.507068	-0.292164	1.570951	3.703066	-2.166569	0.000000	0.000000	25.125594	1.865270	-4.444206	12.100932	-20.405046	79.130101	26.040892	66.572761	-5.971608	-0.909076	1.985619	-19.740459	24.918834	28.841309	91.179898	-10.590131	4.477999
0.807692	7.638507	-0.417061	90.502409	0.422691	0.687416	0.797254	9.110098	4.016307	1.990674	4.595590	0.080208	23.124192	-10.966618	0.000000	7.468775	-2.379721	4.124252	2.622736	0.045775	24.731490	0.581472	0.000000	0.198420	0.326152	-0.405480	0.368486	0.433782	-0.430823	0.325984	0.793006	-0.430823	0.226774	0.793006	-0.354795	0.184253	0.665090	-0.329453	0.113377	0.505210	-0.304110	1.417295	3.689499	-2.255159	0.000000	0.000000	24.560629	1.629763	-4.463753	11.760925	-20.866967	81.190416	25.490618	66.730085	-5.986379	-0.670236	1.345680	-19.863366	24.209033	27.267477	89.832786	-9.434285	4.194612
0.826923	7.613317	-0.311435	90.489485	0.422284	0.687051	0.797247	9.568291	3.992919	1.058025	5.713118	0.099713	23.968617	-10.363917	0.000000	7.454116	-2.334554	3.721881	2.819842	0.049216	25.444252	1.264489	0.000000	0.175180	0.323264	-0.420141	0.325327	0.429942	-0.446400	0.287803	0.785985	-0.446400	0.200213	0.785985	-0.367624	0.162672	0.659201	-0.341365	0.100098	0.500737	-0.315106	1.251293	3.656832	-2.336701	0.000000	0.000000	23.938723	1.375193	-4.465721	11.387257	-21.339133	83.260787	25.061531	66.587141	-6.234363	-0.613052	0.937452	-19.871582	26.166744	25.382196	86.798019	-8.846763	3.376400
0.846154	7.568008	-0.182963	90.514893	0.421688	0.686764	0.797099	10.023213	3.932996	0.161655	6.924349	0.120853	24.787071	-9.867229	0.000000	7.419320	-2.251327	3.477540	3.056562	0.053347	26.133750	1.761646	0.000000	0.149342	0.319212	-0.435483	0.277344	0.424552	-0.462701	0.245355	0.776132	-0.462701	0.170683	0.776132	-0.381048	0.138679	0.650937	-0.353830	0.085334	0.494460	-0.326612	1.066738	3.610992	-2.422027	0.000000	0.000000	23.283508	1.076013	-4.472858	10.957261	-21.815652	85.263296	24.754259	66.004731	-6.599933	-0.725629	0.739057	-19.785651	30.431212	23.352062	82.282304	-8.745085	2.152629
0.865385	7.496583	-0.035400	90.587484	0.420828	0.686576	0.796773	10.459921	3.823071	-0.664244	8.194435	0.143020	25.576772	-9.500364	0.000000	7.362293	-2.119770	3.415420	3.318103	0.057912	26.780271	2.059091	0.000000	0.123596	0.313895	-0.444279	0.229530	0.417481	-0.472046	0.203055	0.763205	-0.472046	0.141258	0.763205	-0.388744	0.114771	0.640095	-0.360976	0.070623	0.486224	-0.333209	0.882832	3.550845	-2.470945	0.000000	0.000000	22.579286	0.769906	-4.516569	10.397017	-22.309975	87.034911	24.566618	64.802611	-6.951121	-0.986053	0.746462	-19.574862	36.652334	21.236101	76.528207	-9.098972	0.636287
0.884615	7.428336	0.115785	90.637970	0.419849	0.686484	0.796307	10.889128	3.705536	-1.357129	9.494949	0.165718	26.295707	-9.238814	0.000000	7.286009	-1.978177	3.527896	3.576448	0.062421	27.384408	2.075437	0.000000	0.099662	0.311632	-0.446962	0.185082	0.414470	-0.474897	0.163734	0.757701	-0.474897	0.113903	0.757701	-0.391092	0.092546	0.635479	-0.363157	0.056947	0.482717	-0.335222	0.711874	3.525238	-2.485869	0.000000	0.000000	21.865235	0.470620	-4.471414	9.748467	-22.803511	88.480849	24.427247	63.129715	-6.906917	-1.334031	0.834191	-19.274020	44.103797	19.277190	69.772944	-9.663345	-0.983586
0.903846	7.338963	0.262809	90.716133	0.418756	0.686478	0.795742	11.296377	3.549969	-1.944696	10.779201	0.188133	26.937976	-9.089595	0.000000	7.220376	-1.809237	3.579926	3.852822	0.067244	28.000414	2.223370	0.000000	0.078536	0.307776	-0.451792	0.145849	0.409342	-0.480029	0.129027	0.748327	-0.480029	0.089759	0.748327	-0.395318	0.072929	0.627617	-0.367081	0.044875	0.476745	-0.338844	0.560975	3.481626	-2.512734	0.000000	0.000000	21.188176	0.210282	-4.410294	9.021159	-23.244806	89.657470	24.322832	60.521282	-6.547311	-1.727179	0.896235	-18.861239	52.211419	17.542773	62.161208	-10.023038	-2.489178
0.923077	7.232366	0.424343	90.829797	0.417594	0.686591	0.795145	11.636130	3.365520	-2.396859	11.989245	0.209252	27.463359	-9.092387	0.000000	7.141643	-1.615382	3.741179	4.128000	0.072047	28.550881	2.261112	0.000000	0.057538	0.300821	-0.458409	0.106854	0.400092	-0.487060	0.094529	0.731417	-0.487060	0.065760	0.731417	-0.401108	0.053430	0.613435	-0.372457	0.032877	0.465972	-0.343807	0.410989	3.402951	-2.549533	0.000000	0.000000	20.553633	0.021085	-4.450060	8.265340	-23.611458	90.549087	24.233081	57.164230	-5.865430	-2.022134	1.011495	-18.474663	59.409125	16.191433	54.444111	-10.302523	-3.762038
0.942308	7.109913	0.586089	90.979946	0.416424	0.686798	0.794553	11.896615	3.154945	-2.719950	13.063855	0.228007	27.864825	-9.203387	0.000000	7.072968	-1.409070	3.887781	4.414254	0.077043	29.038861	2.369347	0.000000	0.037989	0.290658	-0.474964	0.070550	0.386575	-0.504649	0.062413	0.706705	-0.504649	0.043418	0.706705	-0.415593	0.035277	0.592709	-0.385908	0.021707	0.450229	-0.356223	0.271355	3.287979	-2.641606	0.000000	0.000000	20.009704	-0.099785	-4.564698	7.549227	-23.881659	91.218487	24.133379	53.288132	-4.882573	-2.192384	1.189019	-17.992216	67.028305	14.997763	46.179863	-10.241868	-4.945361
0.961538	6.972458	0.740446	91.163649	0.415328	0.687089	0.793978	12.065346	2.927248	-2.933235	13.956207	0.243582	28.136317	-9.381047	0.000000	7.018772	-1.197603	3.945658	4.707431	0.082160	29.444499	2.641790	0.000000	0.020710	0.276865	-0.499867	0.038460	0.368231	-0.531109	0.034024	0.673170	-0.531109	0.023669	0.673170	-0.437384	0.019231	0.564583	-0.406142	0.011834	0.428864	-0.374900	0.147928	3.131953	-2.780110	0.000000	0.000000	19.577537	-0.146316	-4.763821	6.791491	-24.031079	91.126651	24.040133	49.970769	-3.686715	-2.126791	1.391447	-17.353923	76.264522	13.779902	37.724262	-10.044254	-6.002652
0.980769	6.820174	0.893770	91.380690	0.414363	0.687466	0.793473	12.122180	2.688946	-3.030357	14.623225	0.255223	28.264322	-9.639111	0.000000	6.970159	-0.983031	4.009157	5.000942	0.087283	29.707101	2.925167	0.000000	0.004170	0.258678	-0.535472	0.007745	0.344042	-0.568939	0.006852	0.628950	-0.568939	0.004766	0.628950	-0.468538	0.003873	0.527497	-0.435071	0.002383	0.400693	-0.401604	0.029789	2.926221	-2.978136	0.000000	0.000000	19.263961	-0.127825	-5.066401	6.122781	-24.030617	90.824613	23.885860	47.112750	-2.484287	-1.950640	1.593068	-16.579350	87.247645	12.524094	29.834265	-9.889906	-6.782572
